<?xml version="1.0" encoding="utf-8"?>
<!-- Generator: Adobe Illustrator 19.1.0, SVG Export Plug-In . SVG Version: 6.00 Build 0)  -->
<svg version="1.1" id="Layer_1" xmlns="http://www.w3.org/2000/svg" xmlns:xlink="http://www.w3.org/1999/xlink" x="0px" y="0px"
	 viewBox="0 0 388.9 355.4" style="enable-background:new 0 0 388.9 355.4;" xml:space="preserve">
<style type="text/css">
	.st0{fill:#00B0FF;}
	.st1{fill:#0081CB;}
	.st2{fill:#004760;}
	.st3{fill:#FFFFFF;}
	.st4{fill:#CCCCCC;}
	.st5{opacity:0;fill:none;stroke:#FFFFFF;stroke-miterlimit:10;}
</style>
<g>
	<g>
		<polygon class="st0" points="421.1,-340.6 445.5,-354.7 522.7,-310.1 522.7,-221 496.3,-205.8 496.3,-297.2 		"/>
		<polygon class="st0" points="368.3,-221 368.3,-309.6 445.9,-265.6 445.9,-176.5 		"/>
		<path class="st1" d="M421.1-340.6l75.1,43.4v91.4l-50.4,29.3v-89.1l-77.8-44.3L421.1-340.6 M421.2-348.5l-3.4,2l-53.3,30.8
			l-10.3,5.9l9.9,5.9l73.8,42.3v85.1v11.8l10.6-5.9l50.8-29.3l3.4-2v-3.9v-91.4v-3.9l-3.2-2l-75-43.4L421.2-348.5L421.2-348.5z"/>
	</g>
	<g>
		<g>
			<path class="st2" d="M305.2-133.3v26h25.6v5.4H298v-31.3H305.2z"/>
			<path class="st2" d="M347-102h-7.2v-31.3h7.2V-102z"/>
			<path class="st2" d="M364.7-110.4c0,2,1.1,3,3.3,3h25.3v5.4h-28.2c-5.1,0-7.6-2.3-7.6-6.8v-17.8c0-4.5,2.5-6.8,7.6-6.8h28.2v5.4
				H368c-2.2,0-3.3,1-3.3,3V-110.4z"/>
			<path class="st2" d="M410.4-122.1h23v4.5h-23v10.2h29.1v5.4h-36.3v-31.3h36.3v5.4h-29.1V-122.1z"/>
			<path class="st2" d="M489.9-133.3v27.7c0,2.5-1.3,3.7-3.9,3.7h-3.6c-1.5,0-2.6-0.5-3.4-1.5l-23.4-24.2v25.7h-6.4v-27.7
				c0-2.5,1.3-3.7,3.9-3.7h3.6c1.5,0,2.6,0.5,3.4,1.5l23.5,24.3v-25.8H489.9z"/>
			<path class="st2" d="M514.2-102v-26h-16v-5.4h39.3v5.4h-16.1v26H514.2z"/>
			<path class="st2" d="M553.8-102h-7.2v-31.3h7.2V-102z"/>
			<path class="st2" d="M595.2-133.3c5.1,0,7.6,2.3,7.6,6.8v24.6h-7.2v-10.6h-24v10.6h-7.2v-24.6c0-4.5,2.5-6.8,7.6-6.8H595.2z
				 M571.7-117.1h24v-7.8c0-2-1.1-3-3.3-3h-17.5c-2.2,0-3.3,1-3.3,3V-117.1z"/>
		</g>
	</g>
</g>
<g>
	<g>
		<polygon class="st3" points="165.4,65.4 190,51.3 267.4,95.9 267.4,185 240.4,200.2 240.4,108.8 		"/>
		<polygon class="st3" points="112.4,185 112.4,96.4 190.4,140.4 190.4,229.5 		"/>
		<path class="st4" d="M165.4,65.4l75,43.4v91.4l-50,29.3v-89.1l-77.9-44.3L165.4,65.4 M165.6,57.5l-3.4,2l-53.3,30.8l-10.3,5.9
			l9.5,5.9l73.3,42.3v85.1v11.8l11.1-5.9l51.2-29.3l3.8-2v-3.9v-91.4v-3.9l-3.3-2L169,59.5L165.6,57.5L165.6,57.5z"/>
	</g>
	<g>
		<g>
			<path class="st3" d="M49.2,272.7v26h25.6v5.4H42v-31.4H49.2z"/>
			<path class="st3" d="M91,304h-7.2v-31.4H91V304z"/>
			<path class="st3" d="M108.7,295.6c0,2,1.1,3,3.3,3h25.3v5.4h-28.2c-5.1,0-7.6-2.3-7.6-6.8v-17.8c0-4.5,2.5-6.8,7.6-6.8h28.2v5.4
				H112c-2.2,0-3.3,1-3.3,3V295.6z"/>
			<path class="st3" d="M154.4,283.9h23v4.5h-23v10.2h29.1v5.4h-36.3v-31.4h36.3v5.4h-29.1V283.9z"/>
			<path class="st3" d="M233.9,272.7v27.7c0,2.5-1.3,3.7-3.9,3.7h-3.6c-1.5,0-2.6-0.5-3.4-1.5l-23.4-24.2V304h-6.4v-27.7
				c0-2.5,1.3-3.7,3.9-3.7h3.6c1.5,0,2.6,0.5,3.4,1.5l23.5,24.3v-25.8H233.9z"/>
			<path class="st3" d="M258.2,304v-26h-16v-5.4h39.3v5.4h-16.1v26H258.2z"/>
			<path class="st3" d="M297.8,304h-7.2v-31.4h7.2V304z"/>
			<path class="st3" d="M339.2,272.7c5.1,0,7.6,2.3,7.6,6.8V304h-7.2v-10.6h-24V304h-7.2v-24.6c0-4.5,2.5-6.8,7.6-6.8H339.2z
				 M315.7,288.9h24v-7.8c0-2-1.1-3-3.3-3h-17.5c-2.2,0-3.3,1-3.3,3V288.9z"/>
		</g>
	</g>
</g>
<rect class="st5" width="388.9" height="355.4"/>
</svg>
