<?xml version="1.0" encoding="utf-8"?>
<!-- Generator: Adobe Illustrator 19.1.0, SVG Export Plug-In . SVG Version: 6.00 Build 0)  -->
<svg version="1.1" id="Layer_1" xmlns="http://www.w3.org/2000/svg" xmlns:xlink="http://www.w3.org/1999/xlink" x="0px" y="0px"
	 viewBox="0 0 249.5 255.5" style="enable-background:new 0 0 249.5 255.5;" xml:space="preserve">
<style type="text/css">
	.st0{fill:#00B0FF;}
	.st1{fill:#0081CB;}
	.st2{fill:#FFFFFF;}
	.st3{fill:#CCCCCC;}
	.st4{opacity:0;fill:none;stroke:#FFFFFF;stroke-miterlimit:10;}
</style>
<g>
	<polygon class="st0" points="106.2,68.4 123.9,58.1 180.5,90.7 180.5,156.1 161.5,167.2 161.5,100.2 	"/>
	<polygon class="st0" points="67.5,156.1 67.5,91.1 124.5,123.4 124.5,188.7 	"/>
	<path class="st1" d="M106.2,68.4l55.3,31.8v67l-37,21.5v-65.3L67.3,90.9L106.2,68.4 M106,62.6l-2.5,1.4L64.4,86.6L56.9,91l7.4,4.3
		l54.2,31v62.4v8.6l7.7-4.3l37.1-21.5l2.3-1.4v-2.9v-67v-2.9l-2.2-1.4l-55-31.8L106,62.6L106,62.6z"/>
</g>
<g>
	<polygon class="st0" points="-369,-70.6 -351.2,-80.9 -294.6,-48.3 -294.6,17.1 -313.9,28.2 -313.9,-38.8 	"/>
	<polygon class="st0" points="-407.7,17.1 -407.7,-47.9 -350.9,-15.6 -350.9,49.7 	"/>
	<path class="st1" d="M-369-70.6l55.1,31.8v67l-36.9,21.5v-65.3l-57.1-32.5L-369-70.6 M-369-76.4l-2.5,1.4l-39.1,22.6l-7.5,4.3
		l7.3,4.3l54.1,31v62.4v8.6l7.8-4.3l37.3-21.5l2.5-1.4v-2.9v-67v-2.9l-2.3-1.4l-55-31.8L-369-76.4L-369-76.4z"/>
</g>
<g>
	<polygon class="st2" points="-374.8,90.4 -357.1,80.1 -300.5,112.7 -300.5,178.1 -319.5,189.2 -319.5,122.2 	"/>
	<polygon class="st2" points="-413.5,178.1 -413.5,113.1 -356.5,145.4 -356.5,210.7 	"/>
	<path class="st3" d="M-374.8,90.4l55.3,31.8v67l-37,21.5v-65.3l-57.1-32.5L-374.8,90.4 M-375,84.6l-2.5,1.4l-39.1,22.6l-7.5,4.3
		l7.4,4.3l54.2,31v62.4v8.6l7.7-4.3l37.6-21.5l2.8-1.4v-2.9v-67v-2.9l-2.7-1.4l-55.2-31.8L-375,84.6L-375,84.6z"/>
</g>
<rect class="st4" width="249.5" height="255.5"/>
</svg>
