<?xml version="1.0" encoding="utf-8"?>
<!-- Generator: Adobe Illustrator 19.1.0, SVG Export Plug-In . SVG Version: 6.00 Build 0)  -->
<svg version="1.1" id="Layer_1" xmlns="http://www.w3.org/2000/svg" xmlns:xlink="http://www.w3.org/1999/xlink" x="0px" y="0px"
	 viewBox="0 0 518 335" style="enable-background:new 0 0 518 335;" xml:space="preserve">
<style type="text/css">
	.st0{fill:#00B0FF;}
	.st1{fill:#0081CB;}
	.st2{fill:#004760;}
	.st3{fill:#FFFFFF;}
	.st4{fill:#CCCCCC;}
	.st5{opacity:0;fill:none;stroke:#FFFFFF;stroke-miterlimit:10;}
</style>
<g>
	<g>
		<polygon class="st0" points="121.5,108.1 139.3,97.8 195.9,130.5 195.9,195.8 176.6,207 176.6,140 		"/>
		<polygon class="st0" points="82.7,195.8 82.7,130.9 139.6,163.2 139.6,228.5 		"/>
		<path class="st1" d="M121.5,108.1l55.1,31.8v67l-36.9,21.5v-65.3l-57.1-32.5L121.5,108.1 M121.5,102.4l-2.5,1.4l-39.1,22.6
			l-7.5,4.3l7.3,4.3l54.1,31v62.4v8.6l7.8-4.3l37.3-21.5l2.5-1.4V207v-67v-2.9l-2.3-1.4l-55-31.8L121.5,102.4L121.5,102.4z"/>
	</g>
	<g>
		<path class="st2" d="M227.4,153.7v19.1h18.8v3.9h-24v-23H227.4z"/>
		<path class="st2" d="M258,176.7h-5.3v-23h5.3V176.7z"/>
		<path class="st2" d="M271,170.5c0,1.5,0.8,2.2,2.4,2.2H292v3.9h-20.7c-3.7,0-5.6-1.7-5.6-5v-13.1c0-3.3,1.9-5,5.6-5H292v3.9h-18.6
			c-1.6,0-2.4,0.7-2.4,2.2V170.5z"/>
		<path class="st2" d="M304.5,161.9h16.9v3.3h-16.9v7.5h21.4v3.9h-26.6v-23h26.6v3.9h-21.4V161.9z"/>
		<path class="st2" d="M362.8,153.7v20.3c0,1.8-0.9,2.7-2.8,2.7h-2.6c-1.1,0-1.9-0.4-2.5-1.1l-17.2-17.8v18.9H333v-20.3
			c0-1.8,0.9-2.7,2.8-2.7h2.6c1.1,0,1.9,0.4,2.5,1.1l17.2,17.8v-18.9H362.8z"/>
		<path class="st2" d="M380.6,176.7v-19.1h-11.8v-3.9h28.8v3.9h-11.8v19.1H380.6z"/>
		<path class="st2" d="M409.6,176.7h-5.3v-23h5.3V176.7z"/>
		<path class="st2" d="M440,153.7c3.7,0,5.6,1.7,5.6,5v18h-5.3v-7.8h-17.6v7.8h-5.3v-18c0-3.3,1.9-5,5.6-5H440z M422.8,165.5h17.6
			v-5.7c0-1.5-0.8-2.2-2.4-2.2h-12.8c-1.6,0-2.4,0.7-2.4,2.2V165.5z"/>
	</g>
</g>
<g>
	<g>
		<polygon class="st3" points="433.9,-165.9 451.6,-176.2 508,-143.5 508,-78.2 489,-67 489,-134 		"/>
		<polygon class="st3" points="395,-78.2 395,-143.1 452,-110.8 452,-45.5 		"/>
		<path class="st4" d="M433.9-165.9L489-134v67l-37,21.5v-65.3l-57-32.5L433.9-165.9 M434-171.6l-2.5,1.4l-39.1,22.6l-7.5,4.3
			l7.2,4.3l54,31v62.4v8.6l7.9-4.3l37.4-21.5l2.7-1.4V-67v-67v-2.9l-2.5-1.4l-55.1-31.8L434-171.6L434-171.6z"/>
	</g>
	<g>
		<path class="st3" d="M539.8-120.3v19.1h18.8v3.9h-24v-23H539.8z"/>
		<path class="st3" d="M570.5-97.3h-5.3v-23h5.3V-97.3z"/>
		<path class="st3" d="M583.5-103.5c0,1.5,0.8,2.2,2.4,2.2h18.6v3.9h-20.7c-3.7,0-5.6-1.7-5.6-5v-13.1c0-3.3,1.9-5,5.6-5h20.7v3.9
			h-18.6c-1.6,0-2.4,0.7-2.4,2.2V-103.5z"/>
		<path class="st3" d="M617-112.1h16.9v3.3H617v7.5h21.4v3.9h-26.6v-23h26.6v3.9H617V-112.1z"/>
		<path class="st3" d="M675.3-120.3v20.3c0,1.8-0.9,2.7-2.8,2.7h-2.6c-1.1,0-1.9-0.4-2.5-1.1l-17.2-17.8v18.9h-4.7v-20.3
			c0-1.8,0.9-2.7,2.8-2.7h2.6c1.1,0,1.9,0.4,2.5,1.1l17.2,17.8v-18.9H675.3z"/>
		<path class="st3" d="M693.1-97.3v-19.1h-11.8v-3.9h28.8v3.9h-11.8v19.1H693.1z"/>
		<path class="st3" d="M722.1-97.3h-5.3v-23h5.3V-97.3z"/>
		<path class="st3" d="M752.5-120.3c3.7,0,5.6,1.7,5.6,5v18h-5.3v-7.8h-17.6v7.8H730v-18c0-3.3,1.9-5,5.6-5H752.5z M735.2-108.5
			h17.6v-5.7c0-1.5-0.8-2.2-2.4-2.2h-12.8c-1.6,0-2.4,0.7-2.4,2.2V-108.5z"/>
	</g>
</g>
<rect class="st5" width="518" height="335"/>
</svg>
