<?xml version="1.0" encoding="utf-8"?>
<!-- Generator: Adobe Illustrator 19.1.0, SVG Export Plug-In . SVG Version: 6.00 Build 0)  -->
<svg version="1.1" id="Layer_1" xmlns="http://www.w3.org/2000/svg" xmlns:xlink="http://www.w3.org/1999/xlink" x="0px" y="0px"
	 viewBox="0 0 518 335" style="enable-background:new 0 0 518 335;" xml:space="preserve">
<style type="text/css">
	.st0{fill:#00B0FF;}
	.st1{fill:#0081CB;}
	.st2{fill:#004760;}
	.st3{fill:#FFFFFF;}
	.st4{fill:#CCCCCC;}
	.st5{opacity:0;fill:none;stroke:#FFFFFF;stroke-miterlimit:10;}
</style>
<g>
	<g>
		<polygon class="st0" points="-90.5,-163.9 -72.7,-174.2 -16.1,-141.5 -16.1,-76.2 -35.4,-65 -35.4,-132 		"/>
		<polygon class="st0" points="-129.3,-76.2 -129.3,-141.1 -72.4,-108.8 -72.4,-43.5 		"/>
		<path class="st1" d="M-90.5-163.9l55.1,31.8v67l-36.9,21.5v-65.3l-57.1-32.5L-90.5-163.9 M-90.5-169.6l-2.5,1.4l-39.1,22.6
			l-7.5,4.3l7.3,4.3l54.1,31v62.4v8.6l7.8-4.3l37.3-21.5l2.5-1.4V-65v-67v-2.9l-2.3-1.4l-55-31.8L-90.5-169.6L-90.5-169.6z"/>
	</g>
	<g>
		<path class="st2" d="M15.4-118.3v19.1h18.8v3.9h-24v-23H15.4z"/>
		<path class="st2" d="M46-95.3h-5.3v-23H46V-95.3z"/>
		<path class="st2" d="M59-101.5c0,1.5,0.8,2.2,2.4,2.2H80v3.9H59.3c-3.7,0-5.6-1.7-5.6-5v-13.1c0-3.3,1.9-5,5.6-5H80v3.9H61.4
			c-1.6,0-2.4,0.7-2.4,2.2V-101.5z"/>
		<path class="st2" d="M92.5-110.1h16.9v3.3H92.5v7.5h21.4v3.9H87.2v-23h26.6v3.9H92.5V-110.1z"/>
		<path class="st2" d="M150.8-118.3v20.3c0,1.8-0.9,2.7-2.8,2.7h-2.6c-1.1,0-1.9-0.4-2.5-1.1l-17.2-17.8v18.9H121v-20.3
			c0-1.8,0.9-2.7,2.8-2.7h2.6c1.1,0,1.9,0.4,2.5,1.1l17.2,17.8v-18.9H150.8z"/>
		<path class="st2" d="M168.6-95.3v-19.1h-11.8v-3.9h28.8v3.9h-11.8v19.1H168.6z"/>
		<path class="st2" d="M197.6-95.3h-5.3v-23h5.3V-95.3z"/>
		<path class="st2" d="M228-118.3c3.7,0,5.6,1.7,5.6,5v18h-5.3v-7.8h-17.6v7.8h-5.3v-18c0-3.3,1.9-5,5.6-5H228z M210.8-106.5h17.6
			v-5.7c0-1.5-0.8-2.2-2.4-2.2h-12.8c-1.6,0-2.4,0.7-2.4,2.2V-106.5z"/>
	</g>
</g>
<g>
	<g>
		<polygon class="st3" points="121.7,108.1 139.5,97.8 196,130.5 196,195.8 177,207 177,140 		"/>
		<polygon class="st3" points="83,195.8 83,130.9 140,163.2 140,228.5 		"/>
		<path class="st4" d="M121.7,108.1L177,140v67l-37,21.5v-65.3l-57.2-32.5L121.7,108.1 M121.5,102.4l-2.5,1.4l-39.1,22.6l-7.5,4.3
			l7.4,4.3l54.2,31v62.4v8.6l7.7-4.3l37.6-21.5l2.8-1.4V207v-67v-2.9l-2.7-1.4l-55.2-31.8L121.5,102.4L121.5,102.4z"/>
	</g>
	<g>
		<path class="st3" d="M227.4,153.7v19.1h18.8v3.9h-24v-23H227.4z"/>
		<path class="st3" d="M258,176.7h-5.3v-23h5.3V176.7z"/>
		<path class="st3" d="M271,170.5c0,1.5,0.8,2.2,2.4,2.2H292v3.9h-20.7c-3.7,0-5.6-1.7-5.6-5v-13.1c0-3.3,1.9-5,5.6-5H292v3.9h-18.6
			c-1.6,0-2.4,0.7-2.4,2.2V170.5z"/>
		<path class="st3" d="M304.5,161.9h16.9v3.3h-16.9v7.5h21.4v3.9h-26.6v-23h26.6v3.9h-21.4V161.9z"/>
		<path class="st3" d="M362.8,153.7v20.3c0,1.8-0.9,2.7-2.8,2.7h-2.6c-1.1,0-1.9-0.4-2.5-1.1l-17.2-17.8v18.9H333v-20.3
			c0-1.8,0.9-2.7,2.8-2.7h2.6c1.1,0,1.9,0.4,2.5,1.1l17.2,17.8v-18.9H362.8z"/>
		<path class="st3" d="M380.6,176.7v-19.1h-11.8v-3.9h28.8v3.9h-11.8v19.1H380.6z"/>
		<path class="st3" d="M409.6,176.7h-5.3v-23h5.3V176.7z"/>
		<path class="st3" d="M440,153.7c3.7,0,5.6,1.7,5.6,5v18h-5.3v-7.8h-17.6v7.8h-5.3v-18c0-3.3,1.9-5,5.6-5H440z M422.8,165.5h17.6
			v-5.7c0-1.5-0.8-2.2-2.4-2.2h-12.8c-1.6,0-2.4,0.7-2.4,2.2V165.5z"/>
	</g>
</g>
<rect class="st5" width="518" height="335"/>
</svg>
