<svg xmlns="http://www.w3.org/2000/svg" data-name="Layer 1" viewBox="0 0 128 160" x="0px" y="0px"><title>Miscellaneous 80 solid</title><path d="M106,0H30a8.01062,8.01062,0,0,0-8,8V120a8.01066,8.01066,0,0,0,8,8h76a8.01066,8.01066,0,0,0,8-8V8A8.01062,8.01062,0,0,0,106,0ZM32,12a2.00587,2.00587,0,0,1,2-2h68a2.00587,2.00587,0,0,1,2,2V31a2.00591,2.00591,0,0,1-2,2H34a2.00591,2.00591,0,0,1-2-2Zm74,112H30a3.99891,3.99891,0,0,1-4-4h84A3.99891,3.99891,0,0,1,106,124ZM34,77h8a2.00587,2.00587,0,0,1,2,2v8a2.00591,2.00591,0,0,1-2,2H34a2.00591,2.00591,0,0,1-2-2V79A2.00587,2.00587,0,0,1,34,77ZM32,67V59a2.00587,2.00587,0,0,1,2-2h8a2.00587,2.00587,0,0,1,2,2v8a2.00591,2.00591,0,0,1-2,2H34A2.00591,2.00591,0,0,1,32,67Zm2,30h8a2.00587,2.00587,0,0,1,2,2v8a2.00591,2.00591,0,0,1-2,2H34a2.00591,2.00591,0,0,1-2-2V99A2.00587,2.00587,0,0,1,34,97ZM54,77h8a2.00587,2.00587,0,0,1,2,2v8a2.00591,2.00591,0,0,1-2,2H54a2.00591,2.00591,0,0,1-2-2V79A2.00587,2.00587,0,0,1,54,77ZM52,67V59a2.00587,2.00587,0,0,1,2-2h8a2.00587,2.00587,0,0,1,2,2v8a2.00591,2.00591,0,0,1-2,2H54A2.00591,2.00591,0,0,1,52,67Zm2,30h8a2.00587,2.00587,0,0,1,2,2v8a2.00591,2.00591,0,0,1-2,2H54a2.00591,2.00591,0,0,1-2-2V99A2.00587,2.00587,0,0,1,54,97ZM74,77h28a2.00587,2.00587,0,0,1,2,2v28a2.00591,2.00591,0,0,1-2,2H94a2.00591,2.00591,0,0,1-2-2V89H74a2.00591,2.00591,0,0,1-2-2V79A2.00587,2.00587,0,0,1,74,77ZM72,67V59a2.00587,2.00587,0,0,1,2-2h28a2.00587,2.00587,0,0,1,2,2v8a2.00591,2.00591,0,0,1-2,2H74A2.00591,2.00591,0,0,1,72,67Zm2,30h8a2.00587,2.00587,0,0,1,2,2v8a2.00591,2.00591,0,0,1-2,2H74a2.00591,2.00591,0,0,1-2-2V99A2.00587,2.00587,0,0,1,74,97Zm36-50H26V43h84Z"/><text x="0" y="143" fill="#000000" font-size="5px" font-weight="bold" font-family="'Helvetica Neue', Helvetica, Arial-Unicode, Arial, Sans-serif">Created by priyanka</text><text x="0" y="148" fill="#000000" font-size="5px" font-weight="bold" font-family="'Helvetica Neue', Helvetica, Arial-Unicode, Arial, Sans-serif">from the Noun Project</text></svg>