<svg xmlns:dc="http://purl.org/dc/elements/1.1/" xmlns:cc="http://creativecommons.org/ns#" xmlns:rdf="http://www.w3.org/1999/02/22-rdf-syntax-ns#" xmlns:svg="http://www.w3.org/2000/svg" xmlns="http://www.w3.org/2000/svg" xmlns:sodipodi="http://sodipodi.sourceforge.net/DTD/sodipodi-0.dtd" xmlns:inkscape="http://www.inkscape.org/namespaces/inkscape" version="1.1" x="0px" y="0px" viewBox="0 0 100 125"><g transform="translate(0,-952.36218)"><path style="text-indent:0;text-transform:none;direction:ltr;block-progression:tb;baseline-shift:baseline;color:#000000;enable-background:accumulate;" d="m 77.74513,957.37203 c -0.741882,0.0539 -1.459162,0.39544 -1.968618,0.9374 l -13.967815,14.99836 c -0.804985,0.85043 -1.038993,2.19397 -0.568929,3.26646 0.470065,1.07249 1.616608,1.811 2.78753,1.79548 2.330128,-0.0146 3.574173,-0.005 4.968418,0 l 0,14.99836 c -0.02241,1.58477 1.414809,3.0424 2.999799,3.0424 1.58499,0 3.022213,-1.45763 2.999799,-3.0424 l 0,-17.99803 c -1.57e-4,-1.57058 -1.429151,-2.99951 -2.999799,-2.99967 -0.492612,0 -0.725507,7.3e-4 -1.124925,0 l 7.124523,-7.62417 7.093276,7.62417 c -0.387394,-0.002 -0.587635,0.003 -1.062429,0 -1.581033,-0.0163 -3.030973,1.41862 -3.031047,2.99967 l 0,20.9977 c -0.02241,1.58477 1.414809,3.0424 2.999799,3.0424 1.58499,0 3.022213,-1.45763 2.999799,-3.0424 l 0,-17.99803 c 1.416665,0.002 2.706396,0.0113 4.999665,0 1.165716,0.003 2.299871,-0.73996 2.762258,-1.81001 0.462386,-1.07005 0.226336,-2.40526 -0.574904,-3.25193 L 80.182467,958.30943 c -0.616077,-0.65687 -1.539853,-1.01215 -2.437337,-0.9374 z m -28.029374,17.99803 c -0.618671,0.0571 -1.217553,0.31216 -1.687387,0.71867 l -13.967815,11.99869 c -0.927962,0.79287 -1.288561,2.18501 -0.862212,3.32865 0.426348,1.14365 1.610276,1.96004 2.83083,1.95202 2.332307,-0.0112 3.573443,-0.004 4.968418,0 -0.0057,16.99801 2.39e-4,33.99541 0,50.99441 1.57e-4,1.5706 1.429151,2.9995 2.999799,2.9997 l 11.999197,0 c 1.570648,-2e-4 2.999642,-1.4291 2.999799,-2.9997 l 0,-6.9992 c 0.02242,-1.5848 -1.414809,-3.0424 -2.999799,-3.0424 -1.58499,0 -3.022213,1.4576 -2.999799,3.0424 l 0,3.9996 -5.999599,0 c 0.0011,-16.9974 -0.0055,-33.996 0,-50.99448 6.03e-4,-1.53982 -1.366925,-2.95141 -2.906055,-2.99967 l 5.905855,-5.06195 5.905854,5.06195 c -1.528769,0.0479 -2.89072,1.43905 -2.906055,2.96842 l 0,8.99902 c -0.02908,1.58371 1.399993,3.04671 2.983968,3.05501 1.583975,0.01 3.028206,-1.4399 3.01563,-3.02377 l 0,-5.99934 c 1.426213,0.002 2.722988,0.009 5.030913,0 1.215345,-0.005 2.386361,-0.82576 2.804951,-1.9667 0.418589,-1.14095 0.05639,-2.52447 -0.86758,-3.31397 L 51.934358,976.08873 c -0.604196,-0.52189 -1.423141,-0.78717 -2.218602,-0.71867 z M 21.71763,990.36842 c -0.618671,0.0571 -1.217553,0.31216 -1.687387,0.71867 L 6.0311804,1003.0857 c -0.9279615,0.793 -1.2885613,2.1851 -0.8622124,3.3287 0.4263489,1.1437 1.610276,1.9601 2.8308306,1.9521 2.3378074,-0.011 3.6002434,0 4.9996654,0 -0.0057,14.6469 2.34e-4,19.3815 0,35.996 1.57e-4,1.5706 1.429151,2.9995 2.999799,2.9997 l 11.999197,0 c 1.570648,-2e-4 2.999642,-1.4291 2.999799,-2.9997 0,-11.9987 0,-23.9973 0,-35.996 1.414058,0 2.705899,0.01 4.999666,0 1.215344,0 2.38636,-0.8258 2.80495,-1.9667 0.418589,-1.141 0.05639,-2.5245 -0.86758,-3.3141 L 23.936232,991.08709 c -0.604196,-0.52189 -1.423141,-0.78717 -2.218602,-0.71867 z m 0.249984,6.93674 5.905854,5.06194 c -1.52851,0.064 -2.875989,1.4699 -2.874807,2.9997 0,11.9987 0,23.9974 0,35.9961 l -5.999599,0 c 0.0014,-14.6466 -0.0053,-19.3817 0,-35.9961 6.03e-4,-1.5398 -1.366925,-2.9514 -2.906055,-2.9997 z m 50.027901,1.06238 c -11.009423,0 -19.998661,8.98886 -19.998661,19.99786 0,11.0089 8.989238,19.9978 19.998661,19.9978 11.009424,0 19.998661,-8.9889 19.998661,-19.9978 0,-11.009 -8.989237,-19.99786 -19.998661,-19.99786 z m 0,5.99936 c 7.767001,0 13.999063,6.2318 13.999063,13.9985 0,7.7666 -6.232062,13.9984 -13.999063,13.9984 -7.767,0 -13.999063,-6.2318 -13.999063,-13.9984 0,-7.7667 6.232063,-13.9985 13.999063,-13.9985 z m -0.03125,1.9373 c -1.423176,0.017 -2.744543,1.1834 -2.937303,2.5934 -0.776024,0.2496 -1.503718,0.5743 -2.156106,0.9999 -1.394637,0.9098 -2.569596,2.3165 -2.812312,4.1558 -0.242715,1.8393 0.65996,3.7572 2.031114,4.937 1.371155,1.1798 3.164173,1.8864 5.374641,2.3123 1.053528,0.2029 1.360358,0.4584 1.78113,0.6874 -0.372361,0.1519 -0.7002,0.3235 -1.374908,0.3749 -1.000992,0.01 -2.617005,-0.4008 -4.093476,-0.7812 -1.521607,-0.3926 -3.263331,0.6346 -3.656004,2.1561 -0.392673,1.5215 0.634498,3.2631 2.156105,3.6558 0.772303,0.1991 1.736464,0.4786 2.812312,0.6874 0.329829,1.33 1.670401,2.3335 3.039441,2.2752 1.36904,-0.058 2.619515,-1.172 2.835165,-2.5252 0.80108,-0.2515 1.547895,-0.5936 2.218602,-1.031 1.394616,-0.9097 2.569596,-2.3166 2.812312,-4.1559 0.242715,-1.8392 -0.691226,-3.7572 -2.062362,-4.937 -1.371137,-1.1798 -3.13294,-1.8862 -5.343393,-2.3122 -1.031291,-0.1987 -1.325686,-0.4295 -1.749883,-0.6561 0.353179,-0.1414 0.664298,-0.319 1.281165,-0.375 1.024224,-0.021 2.649886,0.3558 4.155972,0.7499 1.521662,0.3928 3.263585,-0.6343 3.656281,-2.1559 0.392696,-1.5217 -0.634645,-3.2634 -2.156382,-3.6559 -0.791392,-0.2073 -1.776205,-0.4565 -2.874807,-0.6563 -0.296185,-1.3206 -1.583773,-2.3479 -2.937304,-2.3434 z m 11.999197,30.9966 c -1.581251,0.016 -3.001418,1.4812 -2.968551,3.0622 l 0,0.9999 -6.718301,0 c -0.796223,-0.9322 -2.197233,-1.2914 -3.343734,-0.8572 -1.1465,0.4341 -1.958163,1.6312 -1.937162,2.8569 l 0,0.9999 c 1.57e-4,1.5706 1.429151,2.9995 2.999799,2.9997 l 11.999197,0 c 1.570648,-2e-4 2.999642,-1.4291 2.999799,-2.9997 l 0,-3.9995 c 0.03331,-1.6018 -1.428966,-3.0791 -3.031047,-3.0622 z" fill="#000000" fill-opacity="1" fill-rule="nonzero" stroke="none" marker="none" visibility="visible" display="inline" overflow="visible"/></g><text x="0" y="115" fill="#000000" font-size="5px" font-weight="bold" font-family="'Helvetica Neue', Helvetica, Arial-Unicode, Arial, Sans-serif">Created by hafiudin</text><text x="0" y="120" fill="#000000" font-size="5px" font-weight="bold" font-family="'Helvetica Neue', Helvetica, Arial-Unicode, Arial, Sans-serif">from the Noun Project</text></svg>