<svg xmlns="http://www.w3.org/2000/svg" xmlns:xlink="http://www.w3.org/1999/xlink" version="1.1" x="0px" y="0px" viewBox="0 0 66 82.5" enable-background="new 0 0 66 66" xml:space="preserve"><g><g><path d="M48.4,50.3c-0.3,0-0.4,0.2-0.4,0.5v3.1c0,0.1,0,0.5,0.4,0.5c0.5,0,0.4-0.4,0.4-0.5v-3.1C48.8,50.5,48.8,50.3,48.4,50.3z"/><path d="M48.4,42.7c-1.9-6.3-5.9-15.6-11.4-21.9c-0.2,0,1.2,0-20.5,0C8.8,29.5,3.7,44.2,3.7,50.2c0,8.2,10.3,14.8,23,14.8    c5.7,0,11.2-1.4,15.4-3.9c-1.5-2-2.4-4.4-2.4-7.1C39.8,48.7,43.4,44.1,48.4,42.7z M26.7,54.2c-7,0-12.7-5.7-12.7-12.7    s5.7-12.7,12.7-12.7s12.7,5.7,12.7,12.7S33.7,54.2,26.7,54.2z"/><path d="M26.7,29.8C20.2,29.8,15,35,15,41.5c0,6.5,5.3,11.7,11.7,11.7c6.5,0,11.7-5.3,11.7-11.7C38.4,35,33.2,29.8,26.7,29.8z     M30.5,39.1h-2.4v-0.2c0-0.9-0.9-1.6-1.8-1.4c-0.5,0.1-0.9,0.5-1,1c-0.2,1,0.5,1.8,1.4,1.8c0.9,0,1.8,0.2,2.4,0.8    c2.5,2.5,1.3,5.8-1.2,6.7V48c0,0.7-0.5,1.2-1.2,1.2c-0.7,0-1.2-0.5-1.2-1.2v-0.2c-1.6-0.5-2.6-2-2.6-3.6v-0.2h2.4v0.2    c0,0.9,0.9,1.6,1.8,1.4c0.5-0.1,0.9-0.5,1-1c0.2-1-0.5-1.8-1.5-1.8c-0.9,0-1.8-0.2-2.4-0.8c-2.5-2.5-1.3-5.8,1.2-6.7V35    c0-0.7,0.5-1.2,1.2-1.2c0.7,0,1.2,0.5,1.2,1.2v0.2c1.6,0.5,2.6,2,2.6,3.6V39.1z"/><path d="M16.2,19.8c8.2,0,12.3,0,20.6,0c1,0,1.8-0.8,1.8-1.8c0-1-0.8-1.8-1.8-1.8H16.2c-1,0-1.8,0.8-1.8,1.8    C14.3,19,15.1,19.8,16.2,19.8z"/><path d="M34.1,15.2l3.8-13.3c-11-4-11.6,6-21.6,4.3l2.8,9H34.1z"/><path d="M54.6,53.8c-0.3,0-0.4,0.2-0.4,0.5v3.1c0,0.1,0,0.5,0.4,0.5c0.5,0,0.4-0.4,0.4-0.5v-3C55.1,54.1,55.1,53.8,54.6,53.8z"/><path d="M51.5,43.3c-5.9,0-10.7,4.8-10.7,10.7s4.8,10.7,10.7,10.7c5.9,0,10.7-4.8,10.7-10.7S57.4,43.3,51.5,43.3z M46.5,54.4    c-0.1-0.3-0.1-0.7-0.1-1v-2.5c0-0.1,0-0.4,0.1-0.7c0.2-0.6,0.8-0.9,2-0.9c0.1,0,0.2,0,0.3,0c0.2,0,1.2,0.1,1.5,0.9    c0.1,0.3,0.1,0.5,0.1,0.8v2.6c0,0.5,0,0.9-0.4,1.2c-0.3,0.3-0.8,0.5-1.7,0.5C47.2,55.3,46.7,54.9,46.5,54.4z M50.7,58.7h-1.1    l2.8-9.3h1.1L50.7,58.7z M56.6,57.1c0,0.5,0,0.9-0.4,1.2c-0.3,0.3-0.8,0.5-1.7,0.5c-1.1,0-1.7-0.3-1.9-0.9c-0.1-0.3-0.1-0.7-0.1-1    v-2.5c0-0.1,0-0.4,0.1-0.7c0.2-0.6,0.8-0.9,2-0.9c0.1,0,0.2,0,0.3,0c0.2,0,1.2,0.1,1.5,0.9c0.1,0.3,0.1,0.5,0.1,0.8V57.1z"/></g></g><text x="0" y="81" fill="#000000" font-size="5px" font-weight="bold" font-family="'Helvetica Neue', Helvetica, Arial-Unicode, Arial, Sans-serif">Created by Vectors Point</text><text x="0" y="86" fill="#000000" font-size="5px" font-weight="bold" font-family="'Helvetica Neue', Helvetica, Arial-Unicode, Arial, Sans-serif">from the Noun Project</text></svg>