<svg xmlns="http://www.w3.org/2000/svg" data-name="Layer 1" viewBox="0 0 100 125" x="0px" y="0px"><title>Artboard 2</title><path d="M1,85V49.69a2.7,2.7,0,0,1,1.09-2.17L18.88,35.06a14.46,14.46,0,0,1,8.64-2.85,14.63,14.63,0,0,1,1.49.08v21A5.58,5.58,0,0,0,30.3,57a5.34,5.34,0,0,0,6,1.48l22.83-8.94a6.51,6.51,0,0,1,2.38-.45h0a6.54,6.54,0,0,1,6.16,4.36,6.67,6.67,0,0,1-2.84,7.8L52.88,68.81H66.65a2.2,2.2,0,0,1,2.2,2.2v8.54a5.8,5.8,0,0,1-10.4,3.09,5.81,5.81,0,0,1-11,0,5.81,5.81,0,0,1-10.27-2.2,40.57,40.57,0,0,1-22.64,6.92H3.36A2.36,2.36,0,0,1,1,85ZM95.22,12.64H39.58a3.78,3.78,0,0,0-3.78,3.78v7.31H99V16.43A3.78,3.78,0,0,0,95.22,12.64Zm-59.42,39,20.93-8.19a13,13,0,0,1,4.76-.9,13.15,13.15,0,0,1,12.31,8.66,13,13,0,0,1-1.12,11H95.22A3.78,3.78,0,0,0,99,58.46V30.87H35.8Z"/><text x="0" y="115" fill="#000000" font-size="5px" font-weight="bold" font-family="'Helvetica Neue', Helvetica, Arial-Unicode, Arial, Sans-serif">Created by Gregor Cresnar</text><text x="0" y="120" fill="#000000" font-size="5px" font-weight="bold" font-family="'Helvetica Neue', Helvetica, Arial-Unicode, Arial, Sans-serif">from the Noun Project</text></svg>