<svg xmlns="http://www.w3.org/2000/svg" data-name="Layer 1" viewBox="0 0 100 125" x="0px" y="0px"><title>Artboard 23</title><path d="M33.18,40.55a4.36,4.36,0,1,1-4.36-4.36A4.36,4.36,0,0,1,33.18,40.55ZM58.7,43.09a37.56,37.56,0,0,0-4-1.81l-.52-.22A9,9,0,0,1,52,39.82a1.44,1.44,0,0,1-.62-1.28,1.49,1.49,0,0,1,1-1.11,3.37,3.37,0,0,1,1.21-.24,10.4,10.4,0,0,1,5.16,1,2,2,0,0,0,1.63.19,1.89,1.89,0,0,0,.92-1.28c.23-.7.43-1.4.63-2.11l.24-.83a1.79,1.79,0,0,0-1.1-2.3,14.82,14.82,0,0,0-3.69-1.1c-.92-.14-.92-.14-.93-1.07,0-2.5-.25-3-2.78-3H52.36c-1.47,0-2,.56-2,2,0,.32,0,.63,0,.94v.5c0,.84,0,.84-.84,1.14-3.77,1.37-5.79,3.95-6,7.67-.19,3.19,1.25,5.66,4.42,7.55a25,25,0,0,0,3.58,1.67c.52.21,1,.42,1.56.64a7,7,0,0,1,1.66,1,1.73,1.73,0,0,1-.41,3.09,5.41,5.41,0,0,1-2.83.36,13.49,13.49,0,0,1-4.67-1.39,2.48,2.48,0,0,0-1.14-.36c-1,0-1.31,1-1.46,1.46-.26.83-.49,1.67-.75,2.6-.42,1.54-.12,2.19,1.32,2.89h0a16.65,16.65,0,0,0,4.67,1.34l.57.1c0,.17,0,.5,0,.62l0,1.7a1.79,1.79,0,0,0,1.86,1.92H53l1.36,0a1.73,1.73,0,0,0,1.8-1.86c0-.22,0-.44,0-.66v-.15c0-.51,0-1,0-1.54s0-.47.48-.6a9.21,9.21,0,0,0,4.77-3.06,8.47,8.47,0,0,0,1.8-7A9,9,0,0,0,58.7,43.09ZM99,46.62a4.52,4.52,0,0,1-4.51,4.51h-1.2a34.29,34.29,0,0,1-8.63,17.19L79.45,85.45a7.3,7.3,0,0,1-7,5.2H67.07a7.38,7.38,0,0,1-7-5.29l-1.16-4a47.89,47.89,0,0,1-12.45,0l-1.16,4a7.38,7.38,0,0,1-7,5.29H32.84a7.3,7.3,0,0,1-7-5.2L22,73A69.78,69.78,0,0,1,4.71,61.89,11.36,11.36,0,0,1,1,53.5V42.95a9.08,9.08,0,0,1,9.07-9.07H12a31.67,31.67,0,0,0,4.53-5.71l.09-.15a10.1,10.1,0,0,0-2.51-4,6.71,6.71,0,0,1-1.46-7.1,6.87,6.87,0,0,1,5.93-4.46,23.36,23.36,0,0,1,12.55,2.21,45.29,45.29,0,0,1,21.5-5.33c21.07,0,39,14.35,41,32.76h.9A4.52,4.52,0,0,1,99,46.62Zm-13.75-1c0-15.27-14.63-27.69-32.61-27.69a36.31,36.31,0,0,0-19.26,5.36l-1.74,1.09a1.12,1.12,0,0,1-1.24,0l-1.69-1.16A12.92,12.92,0,0,0,22.6,21a16.5,16.5,0,0,1,2.79,7.53l.11,1.16a1.12,1.12,0,0,1-.21.77l-.67.95c-.29.41-.57.84-.84,1.27a40,40,0,0,1-7.22,8.64l-.9.81a1.14,1.14,0,0,1-.76.29H10.07a.54.54,0,0,0-.54.54V53.5a2.81,2.81,0,0,0,.92,2.08,62.39,62.39,0,0,0,15.83,10A6.84,6.84,0,0,1,30,69.81l3.76,12.34,3.61,0L39,76.43a5.48,5.48,0,0,1,6.36-3.87,38.55,38.55,0,0,0,14.63,0,5.7,5.7,0,0,1,1.08-.1,5.46,5.46,0,0,1,5.28,4L68,82.16l3.61,0,5-16.68a6.91,6.91,0,0,1,1.56-2.68A24.92,24.92,0,0,0,85.25,45.57Z"/><text x="0" y="115" fill="#000000" font-size="5px" font-weight="bold" font-family="'Helvetica Neue', Helvetica, Arial-Unicode, Arial, Sans-serif">Created by Gregor Cresnar</text><text x="0" y="120" fill="#000000" font-size="5px" font-weight="bold" font-family="'Helvetica Neue', Helvetica, Arial-Unicode, Arial, Sans-serif">from the Noun Project</text></svg>