<svg xmlns="http://www.w3.org/2000/svg" viewBox="0 0 100 125" x="0px" y="0px"><title>щит с галочкой</title><path d="M48.85,56.13,40.7,48l2.12-2.12,6,6L62.58,38.16a17.95,17.95,0,1,0,1.81,2.44Z"/><path d="M87.7,20.3c-16.34,0-28.93-9.17-36.63-16.86a1.54,1.54,0,0,0-2.15,0C41.23,11.13,28.63,20.3,12.3,20.3a1.5,1.5,0,0,0-1.5,1.5V41.48c0,15.41,6.5,28.92,18.8,39.1L49,96.65a1.44,1.44,0,0,0,.21.12l.16.09.19.06a1.5,1.5,0,0,0,.34.06h.13a1.5,1.5,0,0,0,.34-.06l.19-.06.17-.09a1.43,1.43,0,0,0,.21-.12L70.4,80.58A53.39,53.39,0,0,0,82.34,66.81l.19-.19.06-.23A48.83,48.83,0,0,0,89.2,41.48V21.8A1.5,1.5,0,0,0,87.7,20.3ZM66.57,38.42A21.2,21.2,0,1,1,64.7,36l6.9-6.9,2.12,2.12Z"/><text x="0" y="115" fill="#000000" font-size="5px" font-weight="bold" font-family="'Helvetica Neue', Helvetica, Arial-Unicode, Arial, Sans-serif">Created by Nikita Kozin</text><text x="0" y="120" fill="#000000" font-size="5px" font-weight="bold" font-family="'Helvetica Neue', Helvetica, Arial-Unicode, Arial, Sans-serif">from the Noun Project</text></svg>